<svg width="78" height="78" viewBox="0 0 78 78" fill="none" xmlns="http://www.w3.org/2000/svg">
<path d="M62.1264 24.617C61.262 24.617 60.4867 24.4212 59.8007 24.0281C59.1146 23.6356 58.5742 23.0975 58.1801 22.4143C57.7853 21.7311 57.5886 20.9645 57.5886 20.1146C57.5886 19.2646 57.7853 18.4818 58.1801 17.7986C58.5742 17.1154 59.1146 16.5779 59.8007 16.1848C60.4867 15.7924 61.262 15.5958 62.1264 15.5958C62.9908 15.5958 63.7633 15.7924 64.4439 16.1848C65.1245 16.5779 65.6622 17.1154 66.0563 17.7986C66.4504 18.4818 66.6478 19.2538 66.6478 20.1146L66.2428 20.7598C66.2428 21.4918 66.0618 22.1479 65.6997 22.7288C65.3376 23.3096 64.8489 23.7698 64.2329 24.1087C63.6169 24.4476 62.9152 24.617 62.1264 24.617ZM62.1264 23.7136C62.807 23.7136 63.4148 23.555 63.9498 23.2378C64.4847 22.9206 64.9061 22.4902 65.2137 21.9466C65.5213 21.403 65.6758 20.7923 65.6758 20.1146C65.6758 19.4368 65.522 18.8098 65.2137 18.2669C64.9061 17.724 64.4847 17.2937 63.9498 16.9758C63.4148 16.6586 62.807 16.5 62.1264 16.5C61.4457 16.5 60.8516 16.6586 60.3111 16.9758C59.7707 17.293 59.344 17.724 59.0309 18.2669C58.7178 18.8105 58.5606 19.4266 58.5606 20.1146C58.5606 20.8025 58.7171 21.403 59.0309 21.9466C59.344 22.4902 59.7707 22.9206 60.3111 23.2378C60.8516 23.555 61.456 23.7136 62.1264 23.7136ZM66.1618 24.5208C66.0216 24.5208 65.9052 24.4754 65.8133 24.3839C65.7215 24.2924 65.6758 24.1772 65.6758 24.0369V21.0831L65.9835 20.1146H66.6478V24.0362C66.6478 24.1758 66.6049 24.2917 66.5185 24.3832C66.432 24.4747 66.3129 24.5208 66.1618 24.5208Z" fill="#C6A4FF"/>
<path d="M66.6478 20.1146C66.6478 19.2538 66.4504 18.4818 66.0563 17.7986C65.6622 17.1154 65.1245 16.5779 64.4439 16.1848C63.7633 15.7924 62.9908 15.5958 62.1264 15.5958C61.262 15.5958 60.4867 15.7924 59.8007 16.1848C59.1146 16.5779 58.5742 17.1154 58.1801 17.7986C57.7853 18.4818 57.5886 19.2646 57.5886 20.1146C57.5886 20.9645 57.7853 21.7311 58.1801 22.4143C58.5742 23.0975 59.1146 23.6356 59.8007 24.0281C60.4867 24.4212 61.262 24.617 62.1264 24.617C62.9152 24.617 63.6169 24.4476 64.2329 24.1087C64.8489 23.7698 65.3376 23.3096 65.6997 22.7288C66.0618 22.1479 66.2428 21.4918 66.2428 20.7598L66.6478 20.1146ZM66.6478 20.1146H65.9835L65.6758 21.0831V24.0369C65.6758 24.1772 65.7215 24.2924 65.8133 24.3839C65.9052 24.4754 66.0216 24.5208 66.1618 24.5208C66.3129 24.5208 66.432 24.4747 66.5185 24.3832C66.6049 24.2917 66.6478 24.1758 66.6478 24.0362V20.1146ZM62.1264 23.7136C62.807 23.7136 63.4148 23.555 63.9498 23.2378C64.4847 22.9206 64.9061 22.4902 65.2137 21.9466C65.5213 21.403 65.6758 20.7923 65.6758 20.1146C65.6758 19.4368 65.522 18.8098 65.2137 18.2669C64.9061 17.724 64.4847 17.2937 63.9498 16.9758C63.4148 16.6586 62.807 16.5 62.1264 16.5C61.4457 16.5 60.8516 16.6586 60.3111 16.9758C59.7707 17.293 59.344 17.724 59.0309 18.2669C58.7178 18.8105 58.5606 19.4266 58.5606 20.1146C58.5606 20.8025 58.7171 21.403 59.0309 21.9466C59.344 22.4902 59.7707 22.9206 60.3111 23.2378C60.8516 23.555 61.456 23.7136 62.1264 23.7136Z" stroke="#C6A4FF" stroke-width="2"/>
<path d="M60.514 43.3494C60.3738 43.3494 60.2574 43.304 60.1656 43.2125C60.0737 43.121 60.0281 43.0058 60.0281 42.8655V35.006C60.0281 34.8555 60.0737 34.7369 60.1656 34.6508C60.2574 34.5647 60.3732 34.522 60.514 34.522C60.6651 34.522 60.7843 34.5647 60.8707 34.6508C60.9571 34.7369 61.0007 34.8555 61.0007 35.006V42.8655C61.0007 43.0051 60.9571 43.121 60.8707 43.2125C60.7843 43.304 60.6651 43.3494 60.514 43.3494ZM60.3521 37.9591C60.4167 37.2704 60.6059 36.6597 60.919 36.1277C61.2321 35.595 61.6378 35.1781 62.1346 34.8765C62.6315 34.5756 63.1828 34.4244 63.7879 34.4244C64.1983 34.4244 64.5175 34.4726 64.7441 34.5695C64.9708 34.6664 65.0572 34.8386 65.0035 35.086C64.9708 35.2473 64.8952 35.3442 64.7761 35.3767C64.657 35.4086 64.5141 35.412 64.3467 35.3848C64.1792 35.3584 63.9927 35.3442 63.7879 35.3442C63.2474 35.3442 62.7669 35.4574 62.3456 35.6831C61.9243 35.9088 61.5942 36.2185 61.3567 36.611C61.1191 37.0041 61 37.4528 61 37.9584L60.3521 37.9591Z" fill="#C6A4FF" stroke="#C6A4FF" stroke-width="2"/>
<path d="M62.1264 62.2751C61.262 62.2751 60.4867 62.0785 59.8007 61.6861C59.1146 61.2937 58.5742 60.7555 58.1801 60.0716C57.7853 59.3884 57.5886 58.6219 57.5886 57.7719C57.5886 56.922 57.7853 56.1392 58.1801 55.456C58.5742 54.7728 59.1146 54.2353 59.8007 53.8422C60.4867 53.4497 61.262 53.2532 62.1264 53.2532C62.9908 53.2532 63.7633 53.4497 64.4439 53.8422C65.1245 54.2346 65.6622 54.7728 66.0563 55.456C66.4504 56.1398 66.6478 56.9118 66.6478 57.7719L66.2428 58.4172C66.2428 59.1492 66.0618 59.8053 65.6997 60.3861C65.3376 60.967 64.8489 61.4272 64.2329 61.7661C63.6169 62.105 62.9152 62.2751 62.1264 62.2751ZM62.1264 61.3709C62.807 61.3709 63.4148 61.2123 63.9498 60.8951C64.4847 60.5779 64.9061 60.1475 65.2137 59.604C65.5213 59.0604 65.6758 58.4497 65.6758 57.7719C65.6758 57.0941 65.522 56.4672 65.2137 55.9243C64.9061 55.3814 64.4847 54.951 63.9498 54.6331C63.4148 54.3159 62.807 54.1573 62.1264 54.1573C61.4457 54.1573 60.8516 54.3159 60.3111 54.6331C59.7707 54.9503 59.344 55.3814 59.0309 55.9243C58.7178 56.4679 58.5606 57.084 58.5606 57.7719C58.5606 58.4599 58.7171 59.0604 59.0309 59.604C59.344 60.1475 59.7707 60.5779 60.3111 60.8951C60.8516 61.2123 61.456 61.3709 62.1264 61.3709ZM66.1618 62.1775C66.0216 62.1775 65.9052 62.1321 65.8133 62.0406C65.7215 61.9491 65.6758 61.8338 65.6758 61.6935V58.7398L65.9835 57.7712L66.6478 57.7719V61.6929C66.6478 61.8325 66.6049 61.9484 66.5185 62.0399C66.432 62.1321 66.3129 62.1775 66.1618 62.1775Z" fill="#C6A4FF"/>
<path d="M66.6478 57.7719C66.6478 56.9118 66.4504 56.1398 66.0563 55.456C65.6622 54.7728 65.1245 54.2346 64.4439 53.8422C63.7633 53.4497 62.9908 53.2532 62.1264 53.2532C61.262 53.2532 60.4867 53.4497 59.8007 53.8422C59.1146 54.2353 58.5742 54.7728 58.1801 55.456C57.7853 56.1392 57.5886 56.922 57.5886 57.7719C57.5886 58.6219 57.7853 59.3884 58.1801 60.0716C58.5742 60.7555 59.1146 61.2937 59.8007 61.6861C60.4867 62.0785 61.262 62.2751 62.1264 62.2751C62.9152 62.2751 63.6169 62.105 64.2329 61.7661C64.8489 61.4272 65.3376 60.967 65.6997 60.3861C66.0618 59.8053 66.2428 59.1492 66.2428 58.4172L66.6478 57.7719ZM66.6478 57.7719L65.9835 57.7712L65.6758 58.7398V61.6935C65.6758 61.8338 65.7215 61.9491 65.8133 62.0406C65.9052 62.1321 66.0216 62.1775 66.1618 62.1775C66.3129 62.1775 66.432 62.1321 66.5185 62.0399C66.6049 61.9484 66.6478 61.8325 66.6478 61.6929V57.7719ZM62.1264 61.3709C62.807 61.3709 63.4148 61.2123 63.9498 60.8951C64.4847 60.5779 64.9061 60.1475 65.2137 59.604C65.5213 59.0604 65.6758 58.4497 65.6758 57.7719C65.6758 57.0941 65.522 56.4672 65.2137 55.9243C64.9061 55.3814 64.4847 54.951 63.9498 54.6331C63.4148 54.3159 62.807 54.1573 62.1264 54.1573C61.4457 54.1573 60.8516 54.3159 60.3111 54.6331C59.7707 54.9503 59.344 55.3814 59.0309 55.9243C58.7178 56.4679 58.5606 57.084 58.5606 57.7719C58.5606 58.4599 58.7171 59.0604 59.0309 59.604C59.344 60.1475 59.7707 60.5779 60.3111 60.8951C60.8516 61.2123 61.456 61.3709 62.1264 61.3709Z" stroke="#C6A4FF" stroke-width="2"/>
<path d="M23.8002 41.3541L13.3526 26.4206C12.022 24.4334 11.1787 22.1459 11.3726 19.7649C11.5074 18.1097 13.1947 16.014 14.7036 15.0577C16.3283 14.0281 19.2217 13.8424 20.8266 14.3853C22.7562 15.038 23.9561 16.4892 25.2159 18.084L31.2933 25.4812C31.7255 26.0492 32.9908 25.7781 33.3188 25.1451L37.7082 17.7478C38.3636 16.582 39.2553 15.7389 40.4096 15.0577C41.9472 14.1508 44.5335 13.7835 47.548 14.9933C50.5625 16.2025 51.5637 18.7401 51.8108 20.976C52.0279 22.9423 51.6522 24.9282 50.8185 26.7236L36.432 57.715C35.1068 60.5705 32.9731 62.7841 29.9327 63.6354C28.3924 64.0664 26.7242 63.8319 25.2153 63.1379C22.9522 62.0975 21.6978 60.094 21.3404 57.778C21.0369 55.8098 21.252 53.7961 21.8843 51.9064L24.2631 44.8006C24.651 43.6416 24.4802 42.3708 23.8002 41.3541Z" fill="url(#paint0_linear_501_276)"/>
<defs>
<linearGradient id="paint0_linear_501_276" x1="31.6081" y1="14.0876" x2="31.6081" y2="63.8523" gradientUnits="userSpaceOnUse">
<stop stop-color="#C1ABE4"/>
<stop offset="1" stop-color="#9747FF"/>
</linearGradient>
</defs>
</svg>
