<?xml version="1.0" encoding="UTF-8"?><svg id="Camada_1" xmlns="http://www.w3.org/2000/svg" xmlns:xlink="http://www.w3.org/1999/xlink" viewBox="0 0 1146 1080"><defs><style>.cls-1{stroke:url(#Gradiente_sem_nome_37-3);}.cls-1,.cls-2,.cls-3{fill:#c48e80;stroke-miterlimit:10;stroke-width:15px;}.cls-4{fill:url(#Gradiente_sem_nome_37-4);}.cls-2{stroke:url(#Gradiente_sem_nome_37);}.cls-3{stroke:url(#Gradiente_sem_nome_37-2);}</style><linearGradient id="Gradiente_sem_nome_37" x1="838.61" y1="287.8" x2="986.71" y2="287.8" gradientUnits="userSpaceOnUse"><stop offset=".01" stop-color="#271d2e"/><stop offset=".22" stop-color="#52354f"/><stop offset=".54" stop-color="#ad797e"/><stop offset=".77" stop-color="#c48e80"/><stop offset="1" stop-color="#e0aa7e"/></linearGradient><linearGradient id="Gradiente_sem_nome_37-2" x1="874.44" y1="564.89" x2="962.78" y2="564.89" xlink:href="#Gradiente_sem_nome_37"/><linearGradient id="Gradiente_sem_nome_37-3" y1="843.41" y2="843.41" xlink:href="#Gradiente_sem_nome_37"/><linearGradient id="Gradiente_sem_nome_37-4" x1="162" y1="566.12" x2="758.62" y2="566.12" xlink:href="#Gradiente_sem_nome_37"/></defs><g><path class="cls-2" d="M912.78,354.35c-12.7,0-24.09-2.89-34.17-8.69-10.08-5.79-18.02-13.73-23.81-23.81-5.8-10.08-8.69-21.39-8.69-33.93s2.89-24.09,8.69-34.17c5.79-10.08,13.73-18.01,23.81-23.81,10.08-5.79,21.47-8.69,34.17-8.69s24.05,2.9,34.05,8.69c10,5.8,17.9,13.73,23.69,23.81,5.79,10.08,8.69,21.47,8.69,34.17l-5.95,9.52c0,10.8-2.66,20.48-7.98,29.05-5.32,8.57-12.5,15.36-21.55,20.36-9.05,5-19.37,7.5-30.96,7.5Zm0-13.33c10,0,18.93-2.34,26.79-7.02,7.86-4.68,14.05-11.03,18.57-19.05,4.52-8.02,6.79-17.03,6.79-27.03s-2.26-19.25-6.79-27.26c-4.52-8.01-10.71-14.36-18.57-19.05-7.86-4.68-16.79-7.02-26.79-7.02s-18.73,2.34-26.67,7.02c-7.94,4.68-14.21,11.04-18.81,19.05-4.6,8.02-6.91,17.11-6.91,27.26s2.3,19.01,6.91,27.03c4.6,8.02,10.87,14.37,18.81,19.05,7.94,4.68,16.82,7.02,26.67,7.02Zm59.29,11.91c-2.06,0-3.77-.67-5.12-2.02-1.35-1.35-2.02-3.05-2.02-5.12v-43.58l4.52-14.29h9.76v57.86c0,2.06-.63,3.77-1.9,5.12-1.27,1.35-3.02,2.02-5.24,2.02Z"/><path class="cls-3" d="M889.09,630.73c-2.06,0-3.77-.67-5.12-2.02-1.35-1.35-2.02-3.05-2.02-5.12v-115.96c0-2.22,.67-3.97,2.02-5.24,1.35-1.27,3.05-1.9,5.12-1.9,2.22,0,3.97,.63,5.24,1.9,1.27,1.27,1.91,3.02,1.91,5.24v115.96c0,2.06-.64,3.77-1.91,5.12-1.27,1.35-3.02,2.02-5.24,2.02Zm-2.38-79.53c.95-10.16,3.73-19.17,8.33-27.02,4.6-7.86,10.56-14.01,17.86-18.46,7.3-4.44,15.4-6.67,24.29-6.67,6.03,0,10.72,.71,14.05,2.14,3.33,1.43,4.6,3.97,3.81,7.62-.48,2.38-1.59,3.81-3.34,4.29-1.75,.47-3.85,.52-6.31,.12-2.46-.39-5.2-.6-8.21-.6-7.94,0-15,1.67-21.19,5-6.19,3.33-11.04,7.9-14.53,13.69-3.49,5.8-5.24,12.42-5.24,19.88h-9.53Z"/><path class="cls-1" d="M912.78,909.96c-12.7,0-24.09-2.9-34.17-8.69-10.08-5.79-18.02-13.73-23.81-23.82-5.8-10.08-8.69-21.39-8.69-33.93s2.89-24.09,8.69-34.17c5.79-10.08,13.73-18.01,23.81-23.81,10.08-5.79,21.47-8.69,34.17-8.69s24.05,2.9,34.05,8.69c10,5.79,17.9,13.73,23.69,23.81,5.79,10.09,8.69,21.48,8.69,34.17l-5.95,9.52c0,10.8-2.66,20.48-7.98,29.05-5.32,8.57-12.5,15.36-21.55,20.36-9.05,5-19.37,7.5-30.96,7.5Zm0-13.34c10,0,18.93-2.34,26.79-7.02,7.86-4.68,14.05-11.03,18.57-19.05s6.79-17.03,6.79-27.03-2.26-19.25-6.79-27.26c-4.52-8.01-10.71-14.36-18.57-19.05-7.86-4.68-16.79-7.02-26.79-7.02s-18.73,2.34-26.67,7.02c-7.94,4.68-14.21,11.04-18.81,19.05-4.6,8.02-6.91,17.11-6.91,27.26s2.3,19.01,6.91,27.03c4.6,8.02,10.87,14.37,18.81,19.05,7.94,4.68,16.82,7.02,26.67,7.02Zm59.29,11.9c-2.06,0-3.77-.67-5.12-2.02-1.35-1.35-2.02-3.05-2.02-5.12v-43.58l4.52-14.29h9.76v57.86c0,2.06-.63,3.77-1.9,5.12-1.27,1.36-3.02,2.02-5.24,2.02Z"/></g><path class="cls-4" d="M349.68,601.29l-153.5-220.33c-19.55-29.32-31.94-63.07-29.09-98.2,1.98-24.42,26.77-55.34,48.94-69.45,23.87-15.19,66.38-17.93,89.96-9.92,28.35,9.63,45.98,31.04,64.49,54.57l89.29,109.14c6.35,8.38,24.94,4.38,29.76-4.96l64.49-109.14c9.63-17.2,22.73-29.64,39.69-39.69,22.59-13.38,60.59-18.8,104.88-.95,44.29,17.84,59,55.28,62.63,88.27,3.19,29.01-2.33,58.31-14.58,84.8l-211.37,457.25c-19.47,42.13-50.82,74.79-95.49,87.35-22.63,6.36-47.14,2.9-69.31-7.34-33.25-15.35-51.68-44.91-56.93-79.08-4.46-29.04-1.3-58.75,7.99-86.63l34.95-104.84c5.7-17.1,3.18-35.86-6.81-50.86Z"/></svg>